<svg width="20" height="20" viewBox="0 0 20 20" fill="none" xmlns="http://www.w3.org/2000/svg">
<g clip-path="url(#clip0_5_12521)">
<path d="M6.66667 9.16667H3.33333C2.67029 9.16667 2.03441 8.90327 1.56557 8.43443C1.09672 7.96559 0.833332 7.32971 0.833332 6.66667V3.33333C0.833332 2.67029 1.09672 2.03441 1.56557 1.56557C2.03441 1.09672 2.67029 0.833332 3.33333 0.833332H6.66667C7.32971 0.833332 7.96559 1.09672 8.43443 1.56557C8.90327 2.03441 9.16667 2.67029 9.16667 3.33333V6.66667C9.16667 7.32971 8.90327 7.96559 8.43443 8.43443C7.96559 8.90327 7.32971 9.16667 6.66667 9.16667ZM3.33333 2.5C3.11232 2.5 2.90036 2.5878 2.74408 2.74408C2.5878 2.90036 2.5 3.11232 2.5 3.33333V6.66667C2.5 6.88768 2.5878 7.09964 2.74408 7.25592C2.90036 7.4122 3.11232 7.5 3.33333 7.5H6.66667C6.88768 7.5 7.09964 7.4122 7.25592 7.25592C7.4122 7.09964 7.5 6.88768 7.5 6.66667V3.33333C7.5 3.11232 7.4122 2.90036 7.25592 2.74408C7.09964 2.5878 6.88768 2.5 6.66667 2.5H3.33333ZM16.6667 9.16667H13.3333C12.6703 9.16667 12.0344 8.90327 11.5656 8.43443C11.0967 7.96559 10.8333 7.32971 10.8333 6.66667V3.33333C10.8333 2.67029 11.0967 2.03441 11.5656 1.56557C12.0344 1.09672 12.6703 0.833332 13.3333 0.833332H16.6667C17.3297 0.833332 17.9656 1.09672 18.4344 1.56557C18.9033 2.03441 19.1667 2.67029 19.1667 3.33333V6.66667C19.1667 7.32971 18.9033 7.96559 18.4344 8.43443C17.9656 8.90327 17.3297 9.16667 16.6667 9.16667ZM13.3333 2.5C13.1123 2.5 12.9004 2.5878 12.7441 2.74408C12.5878 2.90036 12.5 3.11232 12.5 3.33333V6.66667C12.5 6.88768 12.5878 7.09964 12.7441 7.25592C12.9004 7.4122 13.1123 7.5 13.3333 7.5H16.6667C16.8877 7.5 17.0996 7.4122 17.2559 7.25592C17.4122 7.09964 17.5 6.88768 17.5 6.66667V3.33333C17.5 3.11232 17.4122 2.90036 17.2559 2.74408C17.0996 2.5878 16.8877 2.5 16.6667 2.5H13.3333ZM6.66667 19.1667H3.33333C2.67029 19.1667 2.03441 18.9033 1.56557 18.4344C1.09672 17.9656 0.833332 17.3297 0.833332 16.6667V13.3333C0.833332 12.6703 1.09672 12.0344 1.56557 11.5656C2.03441 11.0967 2.67029 10.8333 3.33333 10.8333H6.66667C7.32971 10.8333 7.96559 11.0967 8.43443 11.5656C8.90327 12.0344 9.16667 12.6703 9.16667 13.3333V16.6667C9.16667 17.3297 8.90327 17.9656 8.43443 18.4344C7.96559 18.9033 7.32971 19.1667 6.66667 19.1667ZM3.33333 12.5C3.11232 12.5 2.90036 12.5878 2.74408 12.7441C2.5878 12.9004 2.5 13.1123 2.5 13.3333V16.6667C2.5 16.8877 2.5878 17.0996 2.74408 17.2559C2.90036 17.4122 3.11232 17.5 3.33333 17.5H6.66667C6.88768 17.5 7.09964 17.4122 7.25592 17.2559C7.4122 17.0996 7.5 16.8877 7.5 16.6667V13.3333C7.5 13.1123 7.4122 12.9004 7.25592 12.7441C7.09964 12.5878 6.88768 12.5 6.66667 12.5H3.33333ZM16.6667 19.1667H13.3333C12.6703 19.1667 12.0344 18.9033 11.5656 18.4344C11.0967 17.9656 10.8333 17.3297 10.8333 16.6667V13.3333C10.8333 12.6703 11.0967 12.0344 11.5656 11.5656C12.0344 11.0967 12.6703 10.8333 13.3333 10.8333H16.6667C17.3297 10.8333 17.9656 11.0967 18.4344 11.5656C18.9033 12.0344 19.1667 12.6703 19.1667 13.3333V16.6667C19.1667 17.3297 18.9033 17.9656 18.4344 18.4344C17.9656 18.9033 17.3297 19.1667 16.6667 19.1667ZM13.3333 12.5C13.1123 12.5 12.9004 12.5878 12.7441 12.7441C12.5878 12.9004 12.5 13.1123 12.5 13.3333V16.6667C12.5 16.8877 12.5878 17.0996 12.7441 17.2559C12.9004 17.4122 13.1123 17.5 13.3333 17.5H16.6667C16.8877 17.5 17.0996 17.4122 17.2559 17.2559C17.4122 17.0996 17.5 16.8877 17.5 16.6667V13.3333C17.5 13.1123 17.4122 12.9004 17.2559 12.7441C17.0996 12.5878 16.8877 12.5 16.6667 12.5H13.3333Z" fill="#525356"/>
</g>
<defs>
<clipPath id="clip0_5_12521">
<rect width="20" height="20" fill="white"/>
</clipPath>
</defs>
</svg>
