<svg width="20" height="20" viewBox="0 0 20 20" fill="none" xmlns="http://www.w3.org/2000/svg">
<g clip-path="url(#clip0_6_2026)">
<path d="M6.66659 9.16634H3.33325C2.67021 9.16634 2.03433 8.90295 1.56549 8.43411C1.09664 7.96527 0.833252 7.32938 0.833252 6.66634V3.33301C0.833252 2.66997 1.09664 2.03408 1.56549 1.56524C2.03433 1.0964 2.67021 0.833008 3.33325 0.833008H6.66659C7.32963 0.833008 7.96551 1.0964 8.43435 1.56524C8.90319 2.03408 9.16659 2.66997 9.16659 3.33301V6.66634C9.16659 7.32938 8.90319 7.96527 8.43435 8.43411C7.96551 8.90295 7.32963 9.16634 6.66659 9.16634ZM3.33325 2.49967C3.11224 2.49967 2.90028 2.58747 2.744 2.74375C2.58772 2.90003 2.49992 3.11199 2.49992 3.33301V6.66634C2.49992 6.88736 2.58772 7.09932 2.744 7.2556C2.90028 7.41188 3.11224 7.49967 3.33325 7.49967H6.66659C6.8876 7.49967 7.09956 7.41188 7.25584 7.2556C7.41212 7.09932 7.49992 6.88736 7.49992 6.66634V3.33301C7.49992 3.11199 7.41212 2.90003 7.25584 2.74375C7.09956 2.58747 6.8876 2.49967 6.66659 2.49967H3.33325ZM16.6666 9.16634H13.3333C12.6702 9.16634 12.0343 8.90295 11.5655 8.43411C11.0966 7.96527 10.8333 7.32938 10.8333 6.66634V3.33301C10.8333 2.66997 11.0966 2.03408 11.5655 1.56524C12.0343 1.0964 12.6702 0.833008 13.3333 0.833008H16.6666C17.3296 0.833008 17.9655 1.0964 18.4344 1.56524C18.9032 2.03408 19.1666 2.66997 19.1666 3.33301V6.66634C19.1666 7.32938 18.9032 7.96527 18.4344 8.43411C17.9655 8.90295 17.3296 9.16634 16.6666 9.16634ZM13.3333 2.49967C13.1122 2.49967 12.9003 2.58747 12.744 2.74375C12.5877 2.90003 12.4999 3.11199 12.4999 3.33301V6.66634C12.4999 6.88736 12.5877 7.09932 12.744 7.2556C12.9003 7.41188 13.1122 7.49967 13.3333 7.49967H16.6666C16.8876 7.49967 17.0996 7.41188 17.2558 7.2556C17.4121 7.09932 17.4999 6.88736 17.4999 6.66634V3.33301C17.4999 3.11199 17.4121 2.90003 17.2558 2.74375C17.0996 2.58747 16.8876 2.49967 16.6666 2.49967H13.3333ZM6.66659 19.1663H3.33325C2.67021 19.1663 2.03433 18.903 1.56549 18.4341C1.09664 17.9653 0.833252 17.3294 0.833252 16.6663V13.333C0.833252 12.67 1.09664 12.0341 1.56549 11.5652C2.03433 11.0964 2.67021 10.833 3.33325 10.833H6.66659C7.32963 10.833 7.96551 11.0964 8.43435 11.5652C8.90319 12.0341 9.16659 12.67 9.16659 13.333V16.6663C9.16659 17.3294 8.90319 17.9653 8.43435 18.4341C7.96551 18.903 7.32963 19.1663 6.66659 19.1663ZM3.33325 12.4997C3.11224 12.4997 2.90028 12.5875 2.744 12.7438C2.58772 12.9 2.49992 13.112 2.49992 13.333V16.6663C2.49992 16.8874 2.58772 17.0993 2.744 17.2556C2.90028 17.4119 3.11224 17.4997 3.33325 17.4997H6.66659C6.8876 17.4997 7.09956 17.4119 7.25584 17.2556C7.41212 17.0993 7.49992 16.8874 7.49992 16.6663V13.333C7.49992 13.112 7.41212 12.9 7.25584 12.7438C7.09956 12.5875 6.8876 12.4997 6.66659 12.4997H3.33325ZM16.6666 19.1663H13.3333C12.6702 19.1663 12.0343 18.903 11.5655 18.4341C11.0966 17.9653 10.8333 17.3294 10.8333 16.6663V13.333C10.8333 12.67 11.0966 12.0341 11.5655 11.5652C12.0343 11.0964 12.6702 10.833 13.3333 10.833H16.6666C17.3296 10.833 17.9655 11.0964 18.4344 11.5652C18.9032 12.0341 19.1666 12.67 19.1666 13.333V16.6663C19.1666 17.3294 18.9032 17.9653 18.4344 18.4341C17.9655 18.903 17.3296 19.1663 16.6666 19.1663ZM13.3333 12.4997C13.1122 12.4997 12.9003 12.5875 12.744 12.7438C12.5877 12.9 12.4999 13.112 12.4999 13.333V16.6663C12.4999 16.8874 12.5877 17.0993 12.744 17.2556C12.9003 17.4119 13.1122 17.4997 13.3333 17.4997H16.6666C16.8876 17.4997 17.0996 17.4119 17.2558 17.2556C17.4121 17.0993 17.4999 16.8874 17.4999 16.6663V13.333C17.4999 13.112 17.4121 12.9 17.2558 12.7438C17.0996 12.5875 16.8876 12.4997 16.6666 12.4997H13.3333Z" fill="#525356"/>
</g>
<defs>
<clipPath id="clip0_6_2026">
<rect width="20" height="20" fill="white"/>
</clipPath>
</defs>
</svg>
