<svg width="32" height="32" viewBox="0 0 32 32" fill="none" xmlns="http://www.w3.org/2000/svg">
<rect x="0.5" y="0.5" width="31" height="31" rx="15.5" stroke="#DDDEE0"/>
<path d="M11.8397 24.7886C12.8415 24.7886 13.7471 24.3736 14.3973 23.7081C17.285 21.8313 20.1728 19.9546 23.0607 18.0782C23.7505 17.6275 23.9466 16.6995 23.4979 16.0097L21.5475 13.0071C21.3075 12.64 20.9319 12.4196 20.5293 12.3569L20.7642 11.9096C21.1814 11.118 20.8769 10.1424 20.0858 9.72858L16.6061 7.90207C16.1586 7.66712 15.6134 7.64402 15.1233 7.89824C14.8313 7.48354 14.3502 7.21143 13.8061 7.21143H9.87599C8.98555 7.21143 8.26112 7.93586 8.26112 8.82629V21.21C8.26112 23.1789 9.85479 24.7886 11.8397 24.7886ZM15.1505 22.5638C15.1646 22.5296 15.1759 22.494 15.1889 22.4592V22.533L15.2111 22.4906L15.2266 22.5144L15.1505 22.5638ZM17.6105 16.7374L15.419 15.587V12.2026L19.0033 14.0841L17.6105 16.7374ZM15.9624 19.8769L15.4183 19.5913L15.419 16.2073L17.3552 17.2237L15.9624 19.8769ZM8.8104 15.118H14.8697V18.1145H8.8104V15.118ZM15.4183 20.2128L15.7067 20.3642L15.4183 20.9136V20.2128ZM14.8697 11.5727V14.5687H8.8104V11.5727H14.8697ZM15.6883 22.2142L15.5045 21.9316L16.9319 19.2116L17.9346 20.754L15.6883 22.2142ZM18.3951 20.4546L17.2246 18.654L18.653 15.933L20.6426 18.9936L18.3951 20.4546ZM21.0874 13.3071L23.0374 16.3091C23.3213 16.7454 23.1971 17.3326 22.7609 17.6181L21.1044 18.6934L18.9458 15.3752L20.2525 12.8839C20.5757 12.8689 20.8979 13.0172 21.0874 13.3071ZM16.3508 8.38832L19.8309 10.2151C20.3519 10.4875 20.5541 11.1302 20.2782 11.6535C20.2782 11.6536 20.2781 11.6537 20.2781 11.6538L19.2577 13.5969L15.419 11.5819L15.4184 8.82629C15.4184 8.67646 15.3963 8.53196 15.358 8.39422C15.6804 8.22048 16.0459 8.22832 16.3508 8.38832ZM9.87599 7.76071H13.8061C14.3922 7.76071 14.8691 8.2388 14.8691 8.82629V11.0229H8.8104V8.82629C8.8104 8.2388 9.28849 7.76071 9.87599 7.76071ZM8.8104 18.6641H14.869V21.21C14.869 23.1977 13.021 24.2393 11.8396 24.2393C10.1597 24.2393 8.8104 22.8766 8.8104 21.21V18.6641Z" fill="#77797E"/>
<path d="M11.221 22.3902C11.7737 22.6804 12.4641 22.4697 12.7569 21.9119C13.0483 21.3565 12.8338 20.6675 12.2786 20.376C11.723 20.0846 11.0341 20.2991 10.7427 20.8545C10.4503 21.4109 10.6643 22.0979 11.221 22.3902ZM11.2289 21.1098C11.379 20.824 11.7347 20.7111 12.0232 20.8622C12.3103 21.0131 12.4212 21.3694 12.2707 21.6565C12.1198 21.9436 11.7637 22.0547 11.4764 21.9039C11.1886 21.7528 11.0779 21.398 11.2289 21.1098Z" fill="#77797E"/>
</svg>
