<svg width="32" height="32" viewBox="0 0 32 32" fill="none" xmlns="http://www.w3.org/2000/svg">
<rect x="0.5" y="0.5" width="31" height="31" rx="15.5" stroke="#DDDEE0"/>
<g clip-path="url(#clip0_6_2360)">
<path d="M14.4999 19H17.4999C17.7386 19 17.9675 18.9052 18.1363 18.7364C18.3051 18.5676 18.3999 18.3387 18.3999 18.1V15.4C18.3999 15.1613 18.3051 14.9324 18.1363 14.7636C17.9675 14.5948 17.7386 14.5 17.4999 14.5V13.9C17.4999 13.5022 17.3419 13.1207 17.0606 12.8394C16.7793 12.5581 16.3977 12.4 15.9999 12.4C15.6021 12.4 15.2205 12.5581 14.9392 12.8394C14.6579 13.1207 14.4999 13.5022 14.4999 13.9V14.5C14.2612 14.5 14.0323 14.5948 13.8635 14.7636C13.6947 14.9324 13.5999 15.1613 13.5999 15.4V18.1C13.5999 18.3387 13.6947 18.5676 13.8635 18.7364C14.0323 18.9052 14.2612 19 14.4999 19ZM15.0999 13.9C15.0999 13.6613 15.1947 13.4324 15.3635 13.2636C15.5323 13.0948 15.7612 13 15.9999 13C16.2386 13 16.4675 13.0948 16.6363 13.2636C16.8051 13.4324 16.8999 13.6613 16.8999 13.9V14.5H15.0999V13.9ZM14.1999 15.4C14.1999 15.3205 14.2315 15.2442 14.2878 15.1879C14.344 15.1316 14.4203 15.1 14.4999 15.1H17.4999C17.5795 15.1 17.6558 15.1316 17.712 15.1879C17.7683 15.2442 17.7999 15.3205 17.7999 15.4V18.1C17.7999 18.1796 17.7683 18.2559 17.712 18.3122C17.6558 18.3684 17.5795 18.4 17.4999 18.4H14.4999C14.4203 18.4 14.344 18.3684 14.2878 18.3122C14.2315 18.2559 14.1999 18.1796 14.1999 18.1V15.4Z" fill="#77797E"/>
<path d="M15.6999 17.4448V17.5C15.6999 17.5796 15.7315 17.6559 15.7878 17.7121C15.844 17.7684 15.9203 17.8 15.9999 17.8C16.0795 17.8 16.1558 17.7684 16.212 17.7121C16.2683 17.6559 16.2999 17.5796 16.2999 17.5V17.4448C16.5 17.374 16.6688 17.2348 16.7762 17.0517C16.8836 16.8685 16.9228 16.6533 16.8869 16.4441C16.851 16.2348 16.7423 16.045 16.58 15.9082C16.4177 15.7713 16.2122 15.6963 15.9999 15.6963C15.7876 15.6963 15.5821 15.7713 15.4198 15.9082C15.2575 16.045 15.1487 16.2348 15.1128 16.4441C15.0769 16.6533 15.1162 16.8685 15.2236 17.0517C15.331 17.2348 15.4997 17.374 15.6999 17.4448ZM15.9999 16.3C16.0795 16.3 16.1558 16.3316 16.212 16.3879C16.2683 16.4441 16.2999 16.5205 16.2999 16.6C16.2999 16.6796 16.2683 16.7559 16.212 16.8121C16.1558 16.8684 16.0795 16.9 15.9999 16.9C15.9203 16.9 15.844 16.8684 15.7878 16.8121C15.7315 16.7559 15.6999 16.6796 15.6999 16.6C15.6999 16.5205 15.7315 16.4441 15.7878 16.3879C15.844 16.3316 15.9203 16.3 15.9999 16.3Z" fill="#77797E"/>
<path d="M10.8999 16C10.8999 18.8167 13.1832 21.1 15.9999 21.1C18.8166 21.1 21.0999 18.8167 21.0999 16C21.0999 13.1833 18.8166 10.9 15.9999 10.9C13.1844 10.903 10.9029 13.1845 10.8999 16ZM15.9999 11.5C18.4851 11.5 20.4999 13.5148 20.4999 16C20.4999 18.4852 18.4851 20.5 15.9999 20.5C13.5147 20.5 11.4999 18.4852 11.4999 16C11.5029 13.516 13.5159 11.503 15.9999 11.5ZM21.9999 22.6C21.7346 22.601 21.4772 22.6899 21.2678 22.8527C21.0584 23.0156 20.9088 23.2432 20.8425 23.5H18.6999V21.6865C19.3706 21.3708 19.9801 20.9386 20.4999 20.41C20.5281 20.382 20.5505 20.3487 20.5658 20.312C20.581 20.2753 20.5888 20.2359 20.5887 20.1961C20.5886 20.1564 20.5806 20.117 20.5651 20.0804C20.5497 20.0438 20.5271 20.0106 20.4987 19.9827C20.4703 19.9549 20.4367 19.933 20.3997 19.9183C20.3628 19.9036 20.3233 19.8963 20.2836 19.897C20.2438 19.8977 20.2046 19.9063 20.1682 19.9222C20.1318 19.9382 20.0989 19.9612 20.0715 19.99C19.5621 20.5108 18.9575 20.9289 18.2904 21.2215C18.2501 21.2375 18.2138 21.2622 18.1842 21.2938C18.1809 21.2974 18.1791 21.3022 18.1758 21.3064C18.1538 21.3308 18.1361 21.3587 18.1233 21.3889C18.1174 21.4078 18.1135 21.4272 18.1116 21.4468C18.106 21.4638 18.1021 21.4813 18.0999 21.499V23.5C18.0999 23.6592 18.1631 23.8118 18.2756 23.9243C18.3881 24.0368 18.5408 24.1 18.6999 24.1H20.8425C20.899 24.3168 21.0151 24.5134 21.1777 24.6675C21.3403 24.8215 21.5429 24.9269 21.7624 24.9717C21.9819 25.0164 22.2095 24.9987 22.4194 24.9206C22.6294 24.8425 22.8132 24.7071 22.9501 24.5297C23.0869 24.3524 23.1713 24.1402 23.1936 23.9173C23.2159 23.6944 23.1753 23.4697 23.0763 23.2687C22.9774 23.0678 22.8241 22.8986 22.6338 22.7804C22.4435 22.6622 22.2239 22.5997 21.9999 22.6ZM21.9999 24.4C21.8408 24.4 21.6881 24.3368 21.5756 24.2243C21.4631 24.1118 21.3999 23.9592 21.3999 23.8C21.3999 23.6409 21.4631 23.4883 21.5756 23.3758C21.6881 23.2632 21.8408 23.2 21.9999 23.2C22.159 23.2 22.3116 23.2632 22.4242 23.3758C22.5367 23.4883 22.5999 23.6409 22.5999 23.8C22.5999 23.9592 22.5367 24.1118 22.4242 24.2243C22.3116 24.3368 22.159 24.4 21.9999 24.4ZM9.35729 19.3H10.8069C10.8093 19.3 10.8114 19.2985 10.8141 19.2985C10.8439 19.2972 10.8734 19.2912 10.9014 19.2808C10.9154 19.2762 10.929 19.2706 10.9422 19.264C10.9455 19.2622 10.9494 19.2616 10.9527 19.2595C10.956 19.2574 10.9611 19.2511 10.9659 19.2478C10.9931 19.231 11.0172 19.2097 11.0373 19.1848C11.0408 19.1802 11.0441 19.1754 11.0472 19.1704C11.0666 19.1431 11.0812 19.1127 11.0904 19.0804C11.0904 19.0759 11.0922 19.0714 11.0931 19.0669C11.1003 19.0453 11.105 19.0228 11.1069 19C11.1053 18.9887 11.103 18.9775 11.1 18.9664C11.1 18.9625 11.1 18.9589 11.0979 18.9547C11.0928 18.9195 11.0813 18.8856 11.064 18.8545L11.0625 18.8497C10.7549 18.3187 10.5358 17.7412 10.4139 17.1397C10.406 17.1011 10.3906 17.0644 10.3685 17.0318C10.3465 16.9991 10.3182 16.9711 10.2853 16.9494C10.2525 16.9277 10.2156 16.9126 10.177 16.9051C10.1383 16.8976 10.0985 16.8978 10.0599 16.9057C10.0213 16.9136 9.9846 16.929 9.95195 16.9511C9.91929 16.9731 9.8913 17.0014 9.86957 17.0343C9.84784 17.0671 9.8328 17.104 9.82531 17.1426C9.81781 17.1813 9.81801 17.2211 9.82589 17.2597C9.92669 17.7574 10.0881 18.2407 10.3059 18.6997H9.35729C9.28427 18.4169 9.11062 18.1705 8.86888 18.0065C8.62715 17.8426 8.33393 17.7725 8.04419 17.8093C7.75444 17.8461 7.48807 17.9873 7.29499 18.2065C7.10191 18.4256 6.99539 18.7077 6.99539 18.9997C6.99539 19.2918 7.10191 19.5738 7.29499 19.793C7.48807 20.0121 7.75444 20.1534 8.04419 20.1902C8.33393 20.227 8.62715 20.1568 8.86888 19.9929C9.11062 19.829 9.28427 19.5828 9.35729 19.3ZM8.19989 19.6C8.04076 19.6 7.88814 19.5368 7.77562 19.4243C7.6631 19.3118 7.59989 19.1592 7.59989 19C7.59989 18.8409 7.6631 18.6883 7.77562 18.5758C7.88814 18.4632 8.04076 18.4 8.19989 18.4C8.35902 18.4 8.51163 18.4632 8.62415 18.5758C8.73667 18.6883 8.79989 18.8409 8.79989 19C8.79989 19.1592 8.73667 19.3118 8.62415 19.4243C8.51163 19.5368 8.35902 19.6 8.19989 19.6Z" fill="#77797E"/>
<path d="M6.99989 13C6.99953 13.2917 7.10564 13.5735 7.29831 13.7925C7.49097 14.0115 7.75695 14.1527 8.04631 14.1895C8.33567 14.2263 8.62852 14.1563 8.8699 13.9925C9.11128 13.8287 9.28459 13.5825 9.35729 13.3H10.815C10.8447 13.2982 10.8738 13.2922 10.9017 13.2823C10.9149 13.2781 10.9277 13.2729 10.9401 13.2667C10.9561 13.2583 10.9712 13.2482 10.9851 13.2367C11.0104 13.2176 11.0323 13.1944 11.0499 13.168C11.0538 13.1623 11.0589 13.1581 11.0625 13.1521C11.4472 12.4846 11.9634 11.9021 12.5799 11.44C12.6114 11.4164 12.638 11.3868 12.658 11.3529C12.6781 11.319 12.6913 11.2814 12.6969 11.2424C12.7025 11.2034 12.7003 11.1637 12.6905 11.1255C12.6807 11.0874 12.6635 11.0515 12.6399 11.02C12.6163 10.9885 12.5866 10.9619 12.5527 10.9419C12.5188 10.9218 12.4813 10.9086 12.4423 10.903C12.4033 10.8974 12.3636 10.8996 12.3254 10.9094C12.2873 10.9192 12.2514 10.9364 12.2199 10.96C11.5886 11.4356 11.0525 12.0259 10.6398 12.7H9.35729C9.28459 12.4175 9.11128 12.1713 8.8699 12.0075C8.62852 11.8437 8.33567 11.7737 8.04631 11.8105C7.75695 11.8473 7.49097 11.9885 7.29831 12.2075C7.10564 12.4265 6.99953 12.7083 6.99989 13ZM8.79989 13C8.79989 13.1591 8.73668 13.3117 8.62416 13.4243C8.51164 13.5368 8.35902 13.6 8.19989 13.6C8.04076 13.6 7.88815 13.5368 7.77563 13.4243C7.66311 13.3117 7.59989 13.1591 7.59989 13C7.59989 12.8409 7.66311 12.6883 7.77563 12.5757C7.88815 12.4632 8.04076 12.4 8.19989 12.4C8.35902 12.4 8.51164 12.4632 8.62416 12.5757C8.73668 12.6883 8.79989 12.8409 8.79989 13ZM23.7999 17.8C23.5346 17.801 23.2772 17.8899 23.0678 18.0527C22.8584 18.2155 22.7088 18.4432 22.6425 18.7H21.6936C21.9117 18.2414 22.0729 17.7578 22.1736 17.26C22.1895 17.182 22.1738 17.1009 22.1299 17.0344C22.086 16.968 22.0175 16.9218 21.9394 16.9059C21.8614 16.8899 21.7803 16.9057 21.7139 16.9496C21.6475 16.9935 21.6012 17.062 21.5853 17.14C21.4636 17.7414 21.2447 18.319 20.9373 18.85V18.8539C20.9194 18.8856 20.9076 18.9204 20.9025 18.9565C20.9025 18.9598 20.9025 18.9628 20.9004 18.9661C20.8974 18.9772 20.8947 18.9886 20.8929 19C20.8947 19.0236 20.8993 19.0468 20.9067 19.0693C20.9154 19.1059 20.9312 19.1405 20.9532 19.171C20.9562 19.1755 20.9586 19.18 20.9619 19.1842C20.9822 19.2092 21.0065 19.2307 21.0339 19.2478C21.0387 19.2511 21.0417 19.2562 21.0468 19.2592C21.0519 19.2622 21.054 19.2619 21.0573 19.2637C21.0705 19.2706 21.0843 19.2763 21.0987 19.2808C21.1266 19.2909 21.1558 19.2967 21.1854 19.2982C21.1881 19.2982 21.1902 19.2997 21.1929 19.2997H22.6425C22.6989 19.5165 22.815 19.7131 22.9776 19.8673C23.1402 20.0214 23.3427 20.1268 23.5622 20.1716C23.7817 20.2164 24.0094 20.1987 24.2194 20.1206C24.4293 20.0425 24.6132 19.9071 24.7501 19.7298C24.887 19.5524 24.9713 19.3402 24.9937 19.1173C25.016 18.8944 24.9754 18.6697 24.8764 18.4687C24.7775 18.2678 24.6241 18.0986 24.4338 17.9803C24.2436 17.8621 24.0239 17.7997 23.7999 17.8ZM23.7999 19.6C23.6408 19.6 23.4882 19.5368 23.3756 19.4243C23.2631 19.3117 23.1999 19.1591 23.1999 19C23.1999 18.8409 23.2631 18.6883 23.3756 18.5757C23.4882 18.4632 23.6408 18.4 23.7999 18.4C23.959 18.4 24.1116 18.4632 24.2242 18.5757C24.3367 18.6883 24.3999 18.8409 24.3999 19C24.3999 19.1591 24.3367 19.3117 24.2242 19.4243C24.1116 19.5368 23.959 19.6 23.7999 19.6ZM13.8999 21.5041V21.499C13.898 21.4822 13.8947 21.4655 13.89 21.4492C13.8879 21.4288 13.8838 21.4088 13.8777 21.3892C13.8651 21.3595 13.8476 21.332 13.8261 21.3079C13.8222 21.3034 13.8204 21.298 13.8165 21.2938C13.7867 21.2622 13.7504 21.2375 13.71 21.2215C12.9247 20.8749 12.227 20.3568 11.6682 19.7053C11.6429 19.6742 11.6117 19.6485 11.5764 19.6297C11.541 19.6109 11.5023 19.5993 11.4624 19.5957C11.4225 19.5921 11.3823 19.5965 11.3442 19.6086C11.306 19.6208 11.2707 19.6405 11.2403 19.6665C11.2098 19.6926 11.1849 19.7244 11.167 19.7602C11.1491 19.7961 11.1385 19.8351 11.136 19.8751C11.1334 19.915 11.1388 19.9551 11.152 19.9929C11.1651 20.0307 11.1857 20.0656 11.2125 20.0953C11.7894 20.7668 12.5005 21.3103 13.2999 21.6907V23.5H11.1573C11.0843 23.2172 10.9106 22.9707 10.6689 22.8068C10.4272 22.6429 10.1339 22.5728 9.84419 22.6096C9.55445 22.6464 9.28807 22.7876 9.095 23.0067C8.90192 23.2259 8.7954 23.5079 8.7954 23.8C8.7954 24.0921 8.90192 24.3741 9.095 24.5933C9.28807 24.8124 9.55445 24.9536 9.84419 24.9904C10.1339 25.0272 10.4272 24.9571 10.6689 24.7932C10.9106 24.6293 11.0843 24.3828 11.1573 24.1H13.2999C13.459 24.1 13.6116 24.0368 13.7242 23.9243C13.8367 23.8117 13.8999 23.6591 13.8999 23.5V21.5041ZM9.99989 24.4C9.84076 24.4 9.68815 24.3368 9.57563 24.2243C9.46311 24.1117 9.39989 23.9591 9.39989 23.8C9.39989 23.6409 9.46311 23.4883 9.57563 23.3757C9.68815 23.2632 9.84076 23.2 9.99989 23.2C10.159 23.2 10.3116 23.2632 10.4242 23.3757C10.5367 23.4883 10.5999 23.6409 10.5999 23.8C10.5999 23.9591 10.5367 24.1117 10.4242 24.2243C10.3116 24.3368 10.159 24.4 9.99989 24.4ZM17.1399 21.586C16.3874 21.7371 15.6124 21.7371 14.8599 21.586C14.8209 21.5771 14.7805 21.576 14.7411 21.5829C14.7017 21.5898 14.6641 21.6045 14.6304 21.6262C14.5968 21.6478 14.5678 21.676 14.5452 21.709C14.5226 21.742 14.5069 21.7792 14.4989 21.8184C14.4909 21.8576 14.4908 21.898 14.4986 21.9372C14.5065 21.9764 14.5221 22.0137 14.5445 22.0468C14.567 22.0799 14.5959 22.1082 14.6294 22.13C14.6629 22.1518 14.7005 22.1666 14.7399 22.1737C15.0567 22.2352 15.3774 22.2727 15.6999 22.285V24.7C15.6999 24.7796 15.7315 24.8559 15.7878 24.9121C15.844 24.9684 15.9203 25 15.9999 25C16.0795 25 16.1558 24.9684 16.212 24.9121C16.2683 24.8559 16.2999 24.7796 16.2999 24.7V22.285C16.6223 22.2725 16.9432 22.2353 17.2599 22.1737C17.3362 22.1562 17.4027 22.1095 17.4451 22.0437C17.4875 21.9778 17.5024 21.898 17.4868 21.8213C17.4711 21.7446 17.426 21.677 17.3612 21.633C17.2964 21.5891 17.217 21.5722 17.1399 21.586ZM13.2999 7.9H11.1573C11.0843 7.61721 10.9106 7.37075 10.6689 7.20682C10.4272 7.0429 10.1339 6.97276 9.84419 7.00957C9.55445 7.04637 9.28807 7.18758 9.095 7.40673C8.90192 7.62589 8.7954 7.90793 8.7954 8.2C8.7954 8.49207 8.90192 8.77412 9.095 8.99327C9.28807 9.21242 9.55445 9.35364 9.84419 9.39044C10.1339 9.42724 10.4272 9.35711 10.6689 9.19318C10.9106 9.02926 11.0843 8.7828 11.1573 8.5H13.2999V10.5016C13.2999 10.5136 13.3056 10.5253 13.3071 10.5373C13.3101 10.5685 13.3182 10.5988 13.3308 10.6273C13.3496 10.6676 13.3776 10.7029 13.4127 10.7302C13.4397 10.7524 13.4702 10.7698 13.503 10.7818C13.5243 10.7887 13.5465 10.7929 13.569 10.795C13.5789 10.7977 13.5889 10.7998 13.599 10.8013C13.642 10.8004 13.6843 10.7902 13.7229 10.7713C14.0884 10.6128 14.4694 10.4932 14.8599 10.4143C14.9379 10.3984 15.0064 10.3521 15.0503 10.2857C15.0942 10.2193 15.11 10.1382 15.094 10.0602C15.0781 9.98214 15.0319 9.91364 14.9655 9.86973C14.899 9.82582 14.8179 9.81009 14.7399 9.826C14.4549 9.8842 14.1741 9.9625 13.8999 10.06V8.5C13.8999 8.34087 13.8367 8.18826 13.7242 8.07574C13.6116 7.96322 13.459 7.9 13.2999 7.9ZM9.99989 8.8C9.84076 8.8 9.68815 8.73679 9.57563 8.62427C9.46311 8.51175 9.39989 8.35913 9.39989 8.2C9.39989 8.04087 9.46311 7.88826 9.57563 7.77574C9.68815 7.66322 9.84076 7.6 9.99989 7.6C10.159 7.6 10.3116 7.66322 10.4242 7.77574C10.5367 7.88826 10.5999 8.04087 10.5999 8.2C10.5999 8.35913 10.5367 8.51175 10.4242 8.62427C10.3116 8.73679 10.159 8.8 9.99989 8.8ZM20.8425 8.5C20.9155 8.7828 21.0892 9.02926 21.3309 9.19318C21.5726 9.35711 21.8659 9.42724 22.1556 9.39044C22.4453 9.35364 22.7117 9.21242 22.9048 8.99327C23.0979 8.77412 23.2044 8.49207 23.2044 8.2C23.2044 7.90793 23.0979 7.62589 22.9048 7.40673C22.7117 7.18758 22.4453 7.04637 22.1556 7.00957C21.8659 6.97276 21.5726 7.0429 21.3309 7.20682C21.0892 7.37075 20.9155 7.61721 20.8425 7.9H18.6999C18.5408 7.9 18.3882 7.96322 18.2756 8.07574C18.1631 8.18826 18.0999 8.34087 18.0999 8.5V10.5007C18.1017 10.5184 18.1052 10.5359 18.1104 10.5529C18.1122 10.5727 18.1164 10.5919 18.1221 10.6108C18.135 10.6408 18.1527 10.669 18.1746 10.6933C18.1779 10.6972 18.1797 10.7023 18.183 10.7059C18.2127 10.7374 18.249 10.7623 18.2892 10.7782C18.9561 11.0704 19.5608 11.488 20.0703 12.0082C20.0973 12.0382 20.1301 12.0625 20.1667 12.0795C20.2033 12.0966 20.243 12.106 20.2834 12.1074C20.3237 12.1087 20.364 12.1019 20.4016 12.0873C20.4393 12.0727 20.4736 12.0507 20.5026 12.0225C20.5315 11.9943 20.5544 11.9606 20.57 11.9233C20.5856 11.8861 20.5935 11.8461 20.5933 11.8057C20.593 11.7653 20.5846 11.7254 20.5686 11.6883C20.5525 11.6513 20.5292 11.6178 20.4999 11.59C19.9801 11.0614 19.3706 10.6292 18.6999 10.3135V8.5H20.8425ZM21.9999 7.6C22.159 7.6 22.3116 7.66322 22.4242 7.77574C22.5367 7.88826 22.5999 8.04087 22.5999 8.2C22.5999 8.35913 22.5367 8.51175 22.4242 8.62427C22.3116 8.73679 22.159 8.8 21.9999 8.8C21.8408 8.8 21.6882 8.73679 21.5756 8.62427C21.4631 8.51175 21.3999 8.35913 21.3999 8.2C21.3999 8.04087 21.4631 7.88826 21.5756 7.77574C21.6882 7.66322 21.8408 7.6 21.9999 7.6ZM15.9999 7C15.9203 7 15.844 7.03161 15.7878 7.08787C15.7315 7.14413 15.6999 7.22044 15.6999 7.3V10C15.6999 10.0796 15.7315 10.1559 15.7878 10.2121C15.844 10.2684 15.9203 10.3 15.9999 10.3C16.3827 10.3 16.7649 10.3381 17.1399 10.414C17.217 10.4278 17.2964 10.4109 17.3612 10.367C17.426 10.323 17.4711 10.2555 17.4868 10.1787C17.5024 10.102 17.4875 10.0222 17.4451 9.95633C17.4027 9.89048 17.3362 9.84381 17.2599 9.8263C16.9432 9.76475 16.6223 9.72754 16.2999 9.715V7.3C16.2999 7.22044 16.2683 7.14413 16.212 7.08787C16.1558 7.03161 16.0795 7 15.9999 7ZM22.6425 13.3C22.7155 13.5828 22.8892 13.8293 23.1309 13.9932C23.3726 14.1571 23.6659 14.2272 23.9556 14.1904C24.2453 14.1536 24.5117 14.0124 24.7048 13.7933C24.8979 13.5741 25.0044 13.2921 25.0044 13C25.0044 12.7079 24.8979 12.4259 24.7048 12.2067C24.5117 11.9876 24.2453 11.8464 23.9556 11.8096C23.6659 11.7728 23.3726 11.8429 23.1309 12.0068C22.8892 12.1707 22.7155 12.4172 22.6425 12.7H21.1929C21.1872 12.7 21.1827 12.703 21.1773 12.703C21.1599 12.7049 21.1427 12.7084 21.126 12.7135C21.1013 12.7184 21.0774 12.7264 21.0549 12.7375C21.0525 12.7375 21.0495 12.7375 21.0468 12.7405C21.0441 12.7435 21.039 12.7486 21.0339 12.7519C21.0065 12.769 20.9822 12.7905 20.9619 12.8155C20.9586 12.8197 20.9562 12.8242 20.9532 12.8287C20.9333 12.8559 20.9184 12.8864 20.9091 12.9187C20.9091 12.9226 20.9091 12.9265 20.9067 12.9304C20.8993 12.953 20.8947 12.9763 20.8929 13C20.8944 13.0114 20.8968 13.0228 20.8995 13.0342C20.8995 13.0375 20.901 13.0405 20.9016 13.0438C20.9067 13.0798 20.9184 13.1146 20.9364 13.1464V13.1503C21.4367 14.0167 21.7001 14.9995 21.6999 16C21.6999 16.0796 21.7315 16.1559 21.7878 16.2121C21.844 16.2684 21.9203 16.3 21.9999 16.3H24.6999C24.7795 16.3 24.8558 16.2684 24.912 16.2121C24.9683 16.1559 24.9999 16.0796 24.9999 16C24.9999 15.9204 24.9683 15.8441 24.912 15.7879C24.8558 15.7316 24.7795 15.7 24.6999 15.7H22.29C22.2507 14.8682 22.0467 14.0525 21.69 13.3H22.6425ZM23.7999 12.4C23.959 12.4 24.1116 12.4632 24.2242 12.5757C24.3367 12.6883 24.3999 12.8409 24.3999 13C24.3999 13.1591 24.3367 13.3117 24.2242 13.4243C24.1116 13.5368 23.959 13.6 23.7999 13.6C23.6408 13.6 23.4882 13.5368 23.3756 13.4243C23.2631 13.3117 23.1999 13.1591 23.1999 13C23.1999 12.8409 23.2631 12.6883 23.3756 12.5757C23.4882 12.4632 23.6408 12.4 23.7999 12.4ZM7.29989 16.3H9.99989C10.0795 16.3 10.1558 16.2684 10.212 16.2121C10.2683 16.1559 10.2999 16.0796 10.2999 16C10.2993 15.3938 10.3954 14.7915 10.5846 14.2156C10.5969 14.1782 10.6017 14.1387 10.5988 14.0994C10.5958 14.0601 10.5852 14.0218 10.5674 13.9866C10.5497 13.9514 10.5251 13.9201 10.4953 13.8944C10.4654 13.8687 10.4308 13.8492 10.3933 13.8369C10.3559 13.8245 10.3164 13.8197 10.2771 13.8227C10.2379 13.8256 10.1995 13.8363 10.1644 13.854C10.1292 13.8718 10.0979 13.8963 10.0722 13.9262C10.0465 13.956 10.0269 13.9907 10.0146 14.0281C9.83835 14.5691 9.73642 15.1316 9.71159 15.7H7.29989C7.22033 15.7 7.14402 15.7316 7.08776 15.7879C7.0315 15.8441 6.99989 15.9204 6.99989 16C6.99989 16.0796 7.0315 16.1559 7.08776 16.2121C7.14402 16.2684 7.22033 16.3 7.29989 16.3Z" fill="#77797E"/>
</g>
<defs>
<clipPath id="clip0_6_2360">
<rect width="18" height="18" fill="white" transform="translate(7 7)"/>
</clipPath>
</defs>
</svg>
