<svg width="18" height="18" viewBox="0 0 18 18" fill="none" xmlns="http://www.w3.org/2000/svg">
<g clip-path="url(#clip0_239_148)">
<path d="M12.7384 16.0575L12.4869 17.0856C11.7324 17.3834 11.1297 17.6101 10.6809 17.7659C10.2316 17.9222 9.70958 18 9.11478 18C8.20137 18 7.4909 17.7762 6.98418 17.3318C6.47746 16.8856 6.22402 16.3201 6.22402 15.6342C6.22402 15.3687 6.24241 15.0955 6.28065 14.8172C6.3192 14.5386 6.38051 14.2249 6.46439 13.8742L7.40733 10.5367C7.49122 10.2171 7.56252 9.9143 7.61963 9.62795C7.67755 9.34338 7.70546 9.08155 7.70546 8.84586C7.70546 8.41964 7.61721 8.12151 7.44153 7.9539C7.26585 7.78677 6.93062 7.70191 6.43294 7.70191C6.18918 7.70191 5.93864 7.74095 5.68327 7.81645C5.42676 7.89227 5.20752 7.96551 5.02345 8.03359L5.2756 7.00467C5.89331 6.75317 6.48375 6.5378 7.04855 6.35905C7.61334 6.17982 8.147 6.09013 8.65178 6.09013C9.5589 6.09013 10.2589 6.30936 10.7504 6.74784C11.242 7.18664 11.4877 7.75547 11.4877 8.45642C11.4877 8.60145 11.4716 8.85699 11.4369 9.22222C11.403 9.58827 11.3399 9.92366 11.248 10.2287L10.3091 13.5528C10.2321 13.8198 10.1629 14.125 10.1027 14.4685C10.0406 14.8097 10.0109 15.0704 10.0109 15.2452C10.0109 15.6866 10.1093 15.988 10.3066 16.1482C10.5054 16.3084 10.8477 16.3881 11.3339 16.3881C11.5622 16.3881 11.822 16.3476 12.1106 16.268C12.3984 16.1885 12.6082 16.1186 12.7384 16.0575ZM12.9765 2.10205C12.9765 2.6812 12.7583 3.17582 12.3196 3.58251C11.8821 3.99066 11.3549 4.1949 10.7382 4.1949C10.1195 4.1949 9.59101 3.99066 9.1485 3.58251C8.70679 3.17565 8.48546 2.6812 8.48546 2.10205C8.48546 1.52402 8.70679 1.0286 9.1485 0.61674C9.5902 0.205526 10.1197 0 10.7382 0C11.3548 0 11.8821 0.20601 12.3196 0.61674C12.7586 1.0286 12.9765 1.52419 12.9765 2.10205Z" fill="white"/>
</g>
<defs>
<clipPath id="clip0_239_148">
<rect width="18" height="18" fill="white"/>
</clipPath>
</defs>
</svg>
