<svg width="32" height="32" viewBox="0 0 32 32" fill="none" xmlns="http://www.w3.org/2000/svg">
<rect x="0.5" y="0.5" width="31" height="31" rx="15.5" stroke="#DDDEE0"/>
<path d="M9.07113 21.4314C9.02328 21.4314 8.97621 21.4193 8.93438 21.396C8.89254 21.3728 8.85733 21.3393 8.83206 21.2987C6.74856 17.954 7.243 13.6689 10.0341 10.8778C10.0872 10.8265 10.1582 10.7982 10.232 10.7988C10.3057 10.7995 10.3762 10.8291 10.4284 10.8812C10.4805 10.9334 10.5101 11.0039 10.5108 11.0776C10.5114 11.1514 10.483 11.2224 10.4318 11.2755C7.82631 13.8804 7.36563 17.8798 9.31019 21.0017C9.33668 21.0443 9.35129 21.0932 9.35251 21.1433C9.35372 21.1935 9.34151 21.243 9.31712 21.2869C9.29273 21.3307 9.25706 21.3672 9.21381 21.3926C9.17056 21.4181 9.12129 21.4314 9.07113 21.4314ZM21.7673 22.8928C21.7117 22.8928 21.6574 22.8763 21.6112 22.8454C21.565 22.8145 21.5289 22.7707 21.5076 22.7193C21.4863 22.668 21.4807 22.6115 21.4915 22.557C21.5022 22.5024 21.5289 22.4523 21.5682 22.413C24.3284 19.6533 24.6417 15.2259 22.2966 12.1142C22.2735 12.0847 22.2566 12.051 22.2467 12.0149C22.2368 11.9788 22.2342 11.9411 22.2391 11.904C22.244 11.8669 22.2562 11.8312 22.2751 11.7989C22.2939 11.7666 22.319 11.7384 22.3489 11.7159C22.3788 11.6934 22.4129 11.6771 22.4492 11.6679C22.4854 11.6588 22.5231 11.657 22.5601 11.6626C22.5971 11.6682 22.6326 11.6811 22.6645 11.7006C22.6965 11.7201 22.7242 11.7458 22.7461 11.7761C25.2588 15.11 24.9235 19.8542 21.9659 22.8107C21.9398 22.8367 21.9089 22.8574 21.8748 22.8715C21.8407 22.8856 21.8042 22.8928 21.7673 22.8928ZM20.9157 21.7408C20.8888 21.7409 20.8621 21.7371 20.8364 21.7295C17.6782 20.8048 14.3212 20.8048 11.1631 21.7295C11.0915 21.7505 11.0145 21.7421 10.949 21.7063C10.8835 21.6705 10.835 21.6102 10.814 21.5386C10.7931 21.467 10.8014 21.3899 10.8372 21.3245C10.873 21.259 10.9334 21.2105 11.005 21.1895C14.2667 20.2355 17.7333 20.2355 20.995 21.1895C21.06 21.2085 21.116 21.2503 21.1527 21.3073C21.1894 21.3642 21.2043 21.4325 21.1946 21.4996C21.185 21.5666 21.1515 21.628 21.1002 21.6723C21.049 21.7166 20.9834 21.7409 20.9157 21.7408Z" fill="#77797E"/>
<path d="M16.324 23.8593C16.2639 23.8593 16.2054 23.8401 16.157 23.8044C16.1086 23.7687 16.0729 23.7185 16.0552 23.6611C16.0374 23.6036 16.0386 23.542 16.0584 23.4853C16.0782 23.4285 16.1157 23.3796 16.1654 23.3457C18.3333 21.8658 19.6264 19.4352 19.6264 16.8438C19.6264 15.6434 19.3609 14.4914 18.8378 13.4204C18.8216 13.3873 18.812 13.3512 18.8097 13.3144C18.8074 13.2775 18.8123 13.2405 18.8243 13.2056C18.8362 13.1706 18.855 13.1384 18.8794 13.1107C18.9038 13.083 18.9335 13.0604 18.9666 13.0441C18.9998 13.0279 19.0358 13.0183 19.0727 13.016C19.1096 13.0137 19.1465 13.0186 19.1815 13.0306C19.2164 13.0425 19.2487 13.0613 19.2764 13.0857C19.3041 13.1101 19.3267 13.1398 19.3429 13.1729C19.9029 14.3154 20.1923 15.5715 20.1889 16.8438C20.1889 19.6214 18.8035 22.2252 16.4826 23.8104C16.4358 23.8421 16.3806 23.8591 16.324 23.8593ZM15.676 23.8593C15.6194 23.8594 15.5641 23.8423 15.5174 23.8104C13.1965 22.2252 11.8111 19.6214 11.8111 16.8438C11.8111 15.5225 12.1103 14.258 12.7015 13.0846C12.7351 13.018 12.7937 12.9675 12.8646 12.9441C12.9354 12.9207 13.0126 12.9265 13.0792 12.96C13.1458 12.9936 13.1964 13.0522 13.2197 13.1231C13.2431 13.1939 13.2374 13.2711 13.2038 13.3377C12.6547 14.4247 12.3702 15.626 12.3736 16.8438C12.3736 19.4347 13.6673 21.8658 15.8346 23.3457C15.8843 23.3796 15.9218 23.4285 15.9416 23.4853C15.9614 23.542 15.9626 23.6036 15.9448 23.6611C15.9271 23.7185 15.8914 23.7687 15.843 23.8044C15.7946 23.8401 15.7361 23.8593 15.676 23.8593Z" fill="#77797E"/>
<path d="M16 23.8007C15.9254 23.8007 15.8539 23.7711 15.8011 23.7183C15.7484 23.6656 15.7188 23.5941 15.7188 23.5195V16.3555C15.7188 16.2809 15.7484 16.2093 15.8011 16.1566C15.8539 16.1039 15.9254 16.0742 16 16.0742C16.0746 16.0742 16.1461 16.1039 16.1989 16.1566C16.2516 16.2093 16.2812 16.2809 16.2812 16.3555V23.5195C16.2812 23.5941 16.2516 23.6656 16.1989 23.7183C16.1461 23.7711 16.0746 23.8007 16 23.8007Z" fill="#77797E"/>
<path d="M22.3945 17.125H10.2884C10.2138 17.125 10.1422 17.0954 10.0895 17.0426C10.0368 16.9899 10.0071 16.9183 10.0071 16.8438C10.0071 16.7692 10.0368 16.6976 10.0895 16.6449C10.1422 16.5921 10.2138 16.5625 10.2884 16.5625H22.3945C22.4691 16.5625 22.5406 16.5921 22.5934 16.6449C22.6461 16.6976 22.6758 16.7692 22.6758 16.8438C22.6758 16.9183 22.6461 16.9899 22.5934 17.0426C22.5406 17.0954 22.4691 17.125 22.3945 17.125Z" fill="#77797E"/>
<path d="M16 23.872C15.0767 23.8737 14.1621 23.693 13.3089 23.3402C12.4556 22.9873 11.6805 22.4694 11.028 21.8161C8.28641 19.0745 8.28641 14.6139 11.028 11.8722C11.3008 11.6 11.5956 11.3491 11.905 11.1269C11.9657 11.0872 12.0395 11.0725 12.1108 11.0858C12.1822 11.0992 12.2456 11.1395 12.2879 11.1985C12.3303 11.2574 12.3483 11.3304 12.3381 11.4023C12.328 11.4741 12.2905 11.5393 12.2335 11.5842C11.9461 11.7907 11.6759 12.0202 11.4257 12.2705C8.90404 14.7927 8.90404 18.8967 11.4257 21.419C13.948 23.9407 18.0514 23.9407 20.5742 21.419C23.0959 18.8967 23.0959 14.7927 20.5742 12.2705C20.3427 12.039 20.0941 11.8252 19.8306 11.6309C19.7993 11.6097 19.7725 11.5824 19.752 11.5505C19.7315 11.5187 19.7176 11.4831 19.7111 11.4458C19.7047 11.4085 19.7059 11.3703 19.7146 11.3335C19.7232 11.2966 19.7393 11.2619 19.7617 11.2314C19.7841 11.2009 19.8125 11.1753 19.8451 11.156C19.8777 11.1367 19.9138 11.1242 19.9513 11.1192C19.9888 11.1142 20.027 11.1169 20.0635 11.127C20.0999 11.1371 20.134 11.1545 20.1636 11.1781C20.4471 11.3868 20.7188 11.6202 20.9725 11.8728C23.7141 14.6144 23.7141 19.0756 20.9725 21.8167C20.3197 22.4697 19.5445 22.9875 18.6912 23.3402C17.8379 23.6929 16.9233 23.8736 16 23.872Z" fill="#77797E"/>
<path d="M16 15.4375C15.9605 15.4375 15.9215 15.4292 15.8854 15.4131C15.8494 15.397 15.8171 15.3735 15.7908 15.3441C15.6844 15.2266 13.1875 12.427 13.1875 10.2782C13.1875 8.78088 14.4492 7.5625 16 7.5625C17.5508 7.5625 18.8125 8.78088 18.8125 10.2782C18.8125 12.4276 16.3156 15.2266 16.2092 15.3447C16.1828 15.3739 16.1505 15.3972 16.1144 15.4132C16.0784 15.4292 16.0394 15.4375 16 15.4375ZM16 8.125C14.7591 8.125 13.75 9.09081 13.75 10.2782C13.75 11.8746 15.4054 14.0087 16 14.7237C16.5946 14.0087 18.25 11.8729 18.25 10.2782C18.25 9.09081 17.2409 8.125 16 8.125Z" fill="#77797E"/>
<path d="M16 11.7812C15.2243 11.7812 14.5938 11.1501 14.5938 10.375C14.5938 9.59987 15.2243 8.96875 16 8.96875C16.7757 8.96875 17.4062 9.59987 17.4062 10.375C17.4062 11.1501 16.7757 11.7812 16 11.7812ZM16 9.53125C15.5348 9.53125 15.1562 9.90981 15.1562 10.375C15.1562 10.8402 15.5348 11.2188 16 11.2188C16.4652 11.2188 16.8438 10.8402 16.8438 10.375C16.8438 9.90981 16.4652 9.53125 16 9.53125Z" fill="#77797E"/>
<path d="M9.8125 22.4688C9.96783 22.4688 10.0938 22.3428 10.0938 22.1875C10.0938 22.0322 9.96783 21.9062 9.8125 21.9062C9.65717 21.9062 9.53125 22.0322 9.53125 22.1875C9.53125 22.3428 9.65717 22.4688 9.8125 22.4688Z" fill="#77797E"/>
<path d="M21.625 11.2188C21.7803 11.2188 21.9062 11.0928 21.9062 10.9375C21.9062 10.7822 21.7803 10.6562 21.625 10.6562C21.4697 10.6562 21.3438 10.7822 21.3438 10.9375C21.3438 11.0928 21.4697 11.2188 21.625 11.2188Z" fill="#77797E"/>
</svg>
