<svg width="32" height="32" viewBox="0 0 32 32" fill="none" xmlns="http://www.w3.org/2000/svg">
<rect x="0.5" y="0.5" width="31" height="31" rx="15.5" stroke="#DDDEE0"/>
<g clip-path="url(#clip0_6_2308)">
<path d="M11.0281 19.5514H9.18141C9.10606 19.5514 9.0338 19.5813 8.98052 19.6346C8.92724 19.6879 8.89731 19.7601 8.89731 19.8355V20.3326C8.89731 20.3699 8.90466 20.4069 8.91893 20.4414C8.93321 20.4758 8.95414 20.5071 8.98052 20.5335C9.0069 20.5599 9.03822 20.5808 9.07269 20.5951C9.10716 20.6094 9.1441 20.6167 9.18141 20.6167H11.0281M11.0281 13.1589H8.96832C8.93102 13.1589 8.89407 13.1663 8.85961 13.1806C8.82514 13.1948 8.79382 13.2158 8.76744 13.2421C8.74106 13.2685 8.72013 13.2998 8.70585 13.3343C8.69158 13.3688 8.68423 13.4057 8.68423 13.443V13.9402C8.68423 13.9775 8.69158 14.0145 8.70585 14.0489C8.72013 14.0834 8.74106 14.1147 8.76744 14.1411C8.79382 14.1675 8.82514 14.1884 8.85961 14.2027C8.89407 14.217 8.93102 14.2243 8.96832 14.2243H11.0281M11.0281 15.2898H8.32908M11.0281 16.7103H8.32908M11.0281 18.1308H8.32908" stroke="#77797E" stroke-width="0.527344" stroke-miterlimit="10" stroke-linecap="round" stroke-linejoin="round"/>
<path d="M7.26367 13.4533V21.6823C7.26367 22.0743 7.58184 22.3925 7.97383 22.3925H11.0282M7.26367 12.2228V10.3177C7.26367 9.92571 7.58184 9.60754 7.97383 9.60754H11.0282M20.9719 19.5513H22.8186C22.8939 19.5513 22.9662 19.5813 23.0195 19.6346C23.0728 19.6878 23.1027 19.7601 23.1027 19.8354V20.3326C23.1027 20.408 23.0728 20.4802 23.0195 20.5335C22.9662 20.5868 22.8939 20.6167 22.8186 20.6167H20.9719M14.2243 12.0935H17.7757M20.9719 13.1589H23.0317C23.107 13.1589 23.1793 13.1889 23.2326 13.2421C23.2858 13.2954 23.3158 13.3677 23.3158 13.443V13.9402C23.3158 14.0155 23.2858 14.0878 23.2326 14.1411C23.1793 14.1944 23.107 14.2243 23.0317 14.2243H20.9719M19.1962 15.6449H14.9346M13.8692 15.6449H12.8038M19.1962 17.0654H14.9346M13.8692 17.0654H12.8038M19.1962 18.4859H14.9346M13.8692 18.4859H12.8038M19.1962 19.9065H14.9346M23.6709 15.2897H20.9719M23.6709 16.7103H20.9719M23.6709 18.1308H20.9719M13.8692 19.9065H12.8038M16.6156 10.4599L16 9.60758L15.3844 10.4599L14.2243 9.96269L14.5795 12.0935H17.4205L17.7757 9.96269L16.6156 10.4599ZM12.0935 13.9402V13.4431C12.0935 13.3677 12.1234 13.2954 12.1767 13.2422C12.23 13.1889 12.3023 13.159 12.3776 13.159H19.6224C19.6977 13.159 19.77 13.1889 19.8232 13.2422C19.8765 13.2954 19.9065 13.3677 19.9065 13.4431V13.9402C19.9065 14.0156 19.8765 14.0878 19.8232 14.1411C19.77 14.1944 19.6977 14.2243 19.6224 14.2243H12.3776C12.3023 14.2243 12.23 14.1944 12.1767 14.1411C12.1234 14.0878 12.0935 14.0156 12.0935 13.9402ZM13.8692 22.1083V21.6112C13.8692 21.5358 13.8991 21.4635 13.9524 21.4103C14.0057 21.357 14.0779 21.3271 14.1533 21.3271H17.8467C17.922 21.3271 17.9943 21.357 18.0476 21.4103C18.1009 21.4635 18.1308 21.5358 18.1308 21.6112V22.1083C18.1308 22.1456 18.1234 22.1826 18.1092 22.2171C18.0949 22.2515 18.074 22.2828 18.0476 22.3092C18.0212 22.3356 17.9899 22.3565 17.9554 22.3708C17.9209 22.3851 17.884 22.3924 17.8467 22.3924H14.1533C14.116 22.3924 14.0791 22.3851 14.0446 22.3708C14.0101 22.3565 13.9788 22.3356 13.9524 22.3092C13.926 22.2829 13.9051 22.2515 13.8908 22.2171C13.8765 22.1826 13.8692 22.1456 13.8692 22.1083Z" stroke="#77797E" stroke-width="0.527344" stroke-miterlimit="10" stroke-linecap="round" stroke-linejoin="round"/>
<path d="M14.0639 8.18689H20.2616C20.654 8.18689 20.9718 8.50505 20.9718 8.8974V23.1026C20.9718 23.495 20.654 23.8131 20.2616 23.8131H11.7384C11.346 23.8131 11.0282 23.495 11.0282 23.1026V8.8974C11.0282 8.50505 11.346 8.18689 11.7384 8.18689H12.8335M24.7363 19.9976V21.6823C24.7363 22.0743 24.4182 22.3925 24.0262 22.3925H20.9718M20.9718 9.60755H24.0262C24.4182 9.60755 24.7363 9.92572 24.7363 10.3177V18.7672" stroke="#77797E" stroke-width="0.527344" stroke-miterlimit="10" stroke-linecap="round" stroke-linejoin="round"/>
</g>
<defs>
<clipPath id="clip0_6_2308">
<rect width="18" height="18" fill="white" transform="translate(7 7)"/>
</clipPath>
</defs>
</svg>
