<svg width="18" height="18" viewBox="0 0 18 18" fill="none" xmlns="http://www.w3.org/2000/svg">
<path d="M11.4542 0.041687C10.315 0.041687 9.39583 0.041687 8.67333 0.139187C7.92333 0.239187 7.29166 0.455854 6.79 0.956687C6.35333 1.39419 6.13166 1.93169 6.01583 2.56335C5.90333 3.17752 5.88166 3.92835 5.87666 4.83002C5.87578 4.99578 5.94078 5.1551 6.05737 5.27294C6.17395 5.39077 6.33257 5.45747 6.49833 5.45835C6.66409 5.45924 6.82341 5.39424 6.94125 5.27765C7.05908 5.16107 7.12578 5.00245 7.12666 4.83669C7.13166 3.92585 7.155 3.28002 7.245 2.78919C7.3325 2.31752 7.47166 2.04335 7.67416 1.84085C7.905 1.61002 8.22916 1.46002 8.84083 1.37752C9.47 1.29335 10.3042 1.29169 11.5 1.29169H12.3333C13.53 1.29169 14.3642 1.29335 14.9933 1.37752C15.605 1.46002 15.9283 1.61085 16.16 1.84085C16.3917 2.07085 16.54 2.39502 16.6225 3.00752C16.7075 3.63585 16.7083 4.47085 16.7083 5.66669V12.3334C16.7083 13.5292 16.7075 14.3642 16.6225 14.9934C16.54 15.605 16.39 15.9284 16.1592 16.1592C15.9283 16.39 15.605 16.54 14.9933 16.6225C14.3642 16.7067 13.53 16.7084 12.3333 16.7084H11.5C10.3042 16.7084 9.47 16.7067 8.84 16.6225C8.22916 16.54 7.905 16.3892 7.67416 16.1592C7.47166 15.9567 7.3325 15.6825 7.245 15.2109C7.155 14.72 7.13166 14.0742 7.12666 13.1634C7.12623 13.0813 7.10963 13.0001 7.07781 12.9244C7.046 12.8488 6.9996 12.7801 6.94125 12.7224C6.8829 12.6647 6.81376 12.619 6.73776 12.588C6.66177 12.557 6.58041 12.5413 6.49833 12.5417C6.41626 12.5421 6.33507 12.5587 6.25941 12.5905C6.18375 12.6224 6.11509 12.6688 6.05737 12.7271C5.99964 12.7854 5.95397 12.8546 5.92296 12.9306C5.89196 13.0066 5.87623 13.0879 5.87666 13.17C5.88166 14.0717 5.90333 14.8225 6.01583 15.4367C6.1325 16.0684 6.35333 16.6059 6.79083 17.0434C7.29166 17.545 7.92416 17.76 8.67416 17.8617C9.39583 17.9584 10.315 17.9584 11.4542 17.9584H12.3792C13.5192 17.9584 14.4375 17.9584 15.16 17.8609C15.91 17.7609 16.5417 17.5442 17.0433 17.0434C17.545 16.5417 17.76 15.91 17.8617 15.16C17.9583 14.4375 17.9583 13.5184 17.9583 12.3792V5.62085C17.9583 4.48169 17.9583 3.56252 17.8617 2.84002C17.7608 2.09002 17.545 1.45835 17.0433 0.956687C16.5417 0.45502 15.91 0.24002 15.16 0.139187C14.4375 0.041687 13.5183 0.041687 12.3792 0.041687H11.4542Z" fill="#FF6591"/>
<path d="M11.5 8.375C11.6658 8.375 11.8247 8.44085 11.9419 8.55806C12.0592 8.67527 12.125 8.83424 12.125 9C12.125 9.16576 12.0592 9.32473 11.9419 9.44194C11.8247 9.55915 11.6658 9.625 11.5 9.625H2.35583L3.99 11.025C4.11598 11.1329 4.19395 11.2863 4.20676 11.4517C4.21958 11.617 4.16619 11.7807 4.05833 11.9067C3.95048 12.0326 3.797 12.1106 3.63165 12.1234C3.46631 12.1362 3.30264 12.0829 3.17667 11.975L0.259999 9.475C0.191387 9.41632 0.1363 9.34348 0.0985294 9.26148C0.0607587 9.17948 0.0412006 9.09028 0.0412006 9C0.0412006 8.90972 0.0607587 8.82051 0.0985294 8.73851C0.1363 8.65651 0.191387 8.58367 0.259999 8.525L3.17667 6.025C3.23904 5.97159 3.31133 5.931 3.3894 5.90553C3.46746 5.88006 3.54978 5.87022 3.63165 5.87656C3.71352 5.88291 3.79334 5.90532 3.86655 5.94251C3.93976 5.9797 4.00493 6.03095 4.05833 6.09333C4.11174 6.15571 4.15233 6.22799 4.1778 6.30606C4.20327 6.38413 4.21311 6.46645 4.20676 6.54832C4.20042 6.63019 4.17801 6.71001 4.14082 6.78322C4.10363 6.85643 4.05238 6.92159 3.99 6.975L2.35667 8.375H11.5Z" fill="#FF6591"/>
</svg>
