<svg width="20" height="20" viewBox="0 0 20 20" fill="none" xmlns="http://www.w3.org/2000/svg">
<g clip-path="url(#clip0_5_12557)">
<path d="M18.5483 7.44582L17.5729 7.28043C17.4864 7.03946 17.3885 6.80274 17.2795 6.57105L17.8539 5.76754C18.3536 5.06547 18.2733 4.11727 17.665 3.51484L16.4929 2.3427C16.1617 2.01145 15.7225 1.82891 15.2565 1.82891C14.8895 1.82891 14.5386 1.94199 14.2441 2.15391L13.4375 2.72848C13.1905 2.61159 12.9377 2.50738 12.6801 2.41625L12.5188 1.46062C12.3769 0.61418 11.6509 0 10.7924 0H9.13652C8.2782 0 7.55215 0.61418 7.41059 1.45891L7.24105 2.45195C7.00082 2.53966 6.765 2.639 6.53441 2.74961L5.7425 2.1793C5.44555 1.96547 5.09324 1.85258 4.72352 1.85258C4.25293 1.85258 3.81363 2.03539 3.48602 2.36742L2.31125 3.53832C1.70457 4.145 1.62508 5.09242 2.12234 5.79098L2.70598 6.61098C2.59793 6.84373 2.50123 7.08159 2.41621 7.32371L1.46043 7.48504C0.61418 7.62707 0 8.35312 0 9.21141V10.8673C0 11.7256 0.61418 12.4516 1.45891 12.5934L2.45195 12.7627C2.53967 13.003 2.63901 13.2389 2.74961 13.4695L2.18141 14.2599C1.68168 14.962 1.76191 15.9103 2.37031 16.5126L3.54234 17.6847C3.87359 18.016 4.31273 18.1985 4.77875 18.1985C5.1457 18.1985 5.49668 18.0854 5.79102 17.8736L6.61102 17.29C6.82955 17.3913 7.05251 17.4829 7.27922 17.5643L7.44172 18.5395C7.58379 19.3858 8.30977 20 9.16809 20H10.8278C11.6861 20 12.4123 19.3858 12.554 18.5406L12.7194 17.5652C12.9604 17.4786 13.1971 17.3807 13.4288 17.2717L14.2297 17.8442C14.5267 18.058 14.879 18.1711 15.2487 18.1711C15.7146 18.1711 16.1537 17.9886 16.485 17.6573L17.657 16.4852C18.2639 15.8784 18.3432 14.931 17.8459 14.2325L17.271 13.4252C17.3804 13.1938 17.4787 12.9574 17.5655 12.7167L18.5394 12.5543C19.3857 12.4123 19.9998 11.6863 19.9998 10.8279V9.17543C20.0095 8.31621 19.3997 7.58926 18.5483 7.44582ZM18.828 10.8279C18.8284 10.9647 18.7801 11.0972 18.6919 11.2017C18.6036 11.3063 18.481 11.376 18.3461 11.3985L17.0543 11.6138C16.8159 11.6534 16.6237 11.8216 16.5521 12.0528C16.4374 12.4246 16.2798 12.8047 16.084 13.1819C16.0296 13.2856 16.0052 13.4023 16.0133 13.519C16.0214 13.6358 16.0619 13.748 16.1301 13.8431L16.8913 14.9121C16.9709 15.0235 17.0082 15.1595 16.9967 15.2959C16.9852 15.4323 16.9255 15.5601 16.8284 15.6566L15.6564 16.8286C15.5449 16.9402 15.4039 16.9992 15.2487 16.9992C15.1263 16.9992 15.0108 16.9626 14.9129 16.8921L13.8484 16.1313C13.6527 15.9907 13.3981 15.9731 13.1844 16.0849C12.8221 16.2741 12.4437 16.4308 12.0537 16.553C11.9419 16.5877 11.842 16.6528 11.765 16.7409C11.6881 16.8291 11.6372 16.9369 11.6179 17.0523L11.3985 18.3455C11.3761 18.4806 11.3064 18.6034 11.2019 18.6918C11.0973 18.7802 10.9647 18.8285 10.8277 18.8281H9.16805C9.03124 18.8285 8.89875 18.7803 8.79424 18.692C8.68972 18.6038 8.62001 18.4812 8.59754 18.3463L8.38223 17.0545C8.36333 16.9388 8.31265 16.8307 8.23586 16.7422C8.15906 16.6537 8.05917 16.5883 7.94734 16.5534C7.5607 16.4313 7.1925 16.2799 6.8527 16.1034C6.76231 16.0563 6.66191 16.0317 6.56 16.0316C6.42818 16.0317 6.29968 16.073 6.19242 16.1496L5.10891 16.9208C5.01125 16.9911 4.90016 17.0266 4.77871 17.0266C4.62352 17.0266 4.48254 16.9678 4.37098 16.8561L3.19687 15.682C2.99648 15.4837 2.97105 15.1715 3.13445 14.9418L3.89113 13.8893C4.03352 13.6917 4.0509 13.4354 3.93617 13.2197C3.74424 12.86 3.58555 12.4834 3.46207 12.0948C3.42702 11.9837 3.36195 11.8844 3.27404 11.8079C3.18613 11.7313 3.07879 11.6806 2.96387 11.6612L1.65438 11.438C1.51932 11.4156 1.39664 11.3459 1.30825 11.2413C1.21986 11.1368 1.17152 11.0042 1.17188 10.8673V9.21145C1.17152 9.07447 1.21991 8.94184 1.30839 8.83728C1.39687 8.73272 1.51966 8.66306 1.6548 8.64074L2.93074 8.42543C3.16926 8.38531 3.36137 8.21672 3.4323 7.9848C3.5527 7.59078 3.70758 7.2098 3.89266 6.85273C3.94673 6.74916 3.97103 6.63262 3.96287 6.51607C3.95472 6.39951 3.91441 6.2875 3.84645 6.19246L3.07707 5.11152C2.99753 5.00031 2.96011 4.86445 2.97149 4.7282C2.98287 4.59195 3.0423 4.46418 3.13918 4.3677L4.3152 3.19566L4.31949 3.19121C4.4252 3.08363 4.56863 3.02441 4.72352 3.02441C4.8459 3.02441 4.96156 3.06105 5.0577 3.13035L6.1148 3.89129C6.3127 4.03383 6.56938 4.0509 6.78422 3.93617C7.14382 3.74431 7.52019 3.58567 7.90863 3.46223C8.01987 3.42721 8.11926 3.36214 8.19584 3.2742C8.27243 3.18625 8.32322 3.07886 8.34262 2.96387L8.56598 1.65438C8.58834 1.51928 8.65804 1.39656 8.76261 1.30816C8.86718 1.21976 8.99979 1.17145 9.13672 1.17188H10.7926C10.9296 1.17152 11.0622 1.21991 11.1667 1.30839C11.2713 1.39687 11.341 1.51966 11.3633 1.6548L11.5786 2.93121C11.6188 3.16988 11.7878 3.36184 12.0198 3.43262C12.4155 3.55285 12.8101 3.7152 13.1929 3.91543C13.4057 4.02648 13.6591 4.0091 13.855 3.86977L14.9265 3.10668C15.024 3.03637 15.1351 3.00082 15.2567 3.00082C15.4118 3.00082 15.5527 3.05969 15.6644 3.17141L16.8384 4.34539C17.0388 4.54375 17.0644 4.85594 16.8999 5.0868L16.1383 6.15234C16.0698 6.24773 16.0293 6.36031 16.0212 6.47744C16.0132 6.59458 16.0379 6.71164 16.0927 6.81551C16.2802 7.17348 16.4377 7.55387 16.5609 7.94633C16.6328 8.17523 16.8243 8.34215 17.0602 8.38195L18.3523 8.60121L18.3534 8.60137C18.6321 8.64824 18.8319 8.88473 18.8279 9.16383L18.828 10.8279Z" fill="#525356"/>
<path d="M10 6.11145C7.85586 6.11145 6.11145 7.85583 6.11145 10C6.11145 12.1442 7.85586 13.8886 10 13.8886C12.1441 13.8886 13.8886 12.1441 13.8886 10C13.8886 7.85586 12.1441 6.11145 10 6.11145ZM10 12.7167C8.50203 12.7167 7.28332 11.4979 7.28332 10C7.28332 8.50208 8.50207 7.28333 10 7.28333C11.4979 7.28333 12.7167 8.50208 12.7167 10C12.7167 11.4979 11.4979 12.7167 10 12.7167Z" fill="#525356"/>
</g>
<defs>
<clipPath id="clip0_5_12557">
<rect width="20" height="20" fill="white"/>
</clipPath>
</defs>
</svg>
