<svg width="20" height="20" viewBox="0 0 20 20" fill="none" xmlns="http://www.w3.org/2000/svg">
<path d="M16.4287 0.909241C18.401 0.909319 19.9999 2.5082 20 4.48053V15.5196C20 17.492 18.4011 19.0908 16.4287 19.0909H3.57129C1.59891 19.0908 0 17.492 0 15.5196V4.48053C7.77652e-05 2.5082 1.59896 0.909319 3.57129 0.909241H16.4287ZM10.7451 2.7276C9.43015 2.7276 8.36426 3.79447 8.36426 5.10944V14.8926C8.36433 16.2075 9.4302 17.2735 10.7451 17.2735H15.6191C16.9341 17.2735 17.9999 16.2075 18 14.8926V5.10944C18 3.79447 16.9341 2.7276 15.6191 2.7276H10.7451Z" fill="#525356"/>
</svg>
